<svg xmlns="http://www.w3.org/2000/svg" version="1.1" xmlns:xlink="http://www.w3.org/1999/xlink" xmlns:svgjs="http://svgjs.com/svgjs" width="512" height="512" x="0" y="0" viewBox="0 0 682.667 682.667" style="enable-background:new 0 0 512 512" xml:space="preserve" class=""><g><defs><clipPath id="a" clipPathUnits="userSpaceOnUse"><path d="M0 512h512V0H0Z" fill="#000000" data-original="#000000"></path></clipPath></defs><g clip-path="url(#a)" transform="matrix(1.33333 0 0 -1.33333 0 682.667)"><path d="M0 0h-238.041c-13.226 0-23.948 10.722-23.948 23.948v448.981c0 13.226 10.722 23.948 23.948 23.948H0c13.226 0 23.948-10.722 23.948-23.948V23.948C23.948 10.722 13.226 0 0 0" style="fill-opacity:1;fill-rule:nonzero;stroke:none" transform="translate(375.02 7.561)" fill="#dff6fd" data-original="#dff6fd"></path><path d="M0 0v-448.98c0-13.23-10.72-23.95-23.95-23.95h-21.67c13.23 0 23.95 10.72 23.95 23.95V0c0 13.23-10.72 23.95-23.95 23.95h21.67C-10.72 23.95 0 13.23 0 0" style="fill-opacity:1;fill-rule:nonzero;stroke:none" transform="translate(398.969 480.49)" fill="#c8effe" data-original="#c8effe"></path><path d="M0 0h-238.041c-13.226 0-23.948 10.722-23.948 23.948v41.49H23.948v-41.49C23.948 10.722 13.226 0 0 0" style="fill-opacity:1;fill-rule:nonzero;stroke:none" transform="translate(375.02 7.561)" fill="#596c76" data-original="#596c76"></path><path d="M0 0h-238.041c-13.226 0-23.948-10.722-23.948-23.948v-41.49H23.948v41.49C23.948-10.722 13.226 0 0 0" style="fill-opacity:1;fill-rule:nonzero;stroke:none" transform="translate(375.02 504.438)" fill="#596c76" data-original="#596c76"></path><path d="M0 0v-41.49c0-13.23-10.72-23.95-23.95-23.95h-21.672c13.23 0 23.951 10.72 23.951 23.95V0Z" style="fill-opacity:1;fill-rule:nonzero;stroke:none" transform="translate(398.97 73)" fill="#465a61" data-original="#465a61"></path><path d="M0 0v-41.49h-21.671V0c0 13.23-10.721 23.95-23.951 23.95h21.672C-10.72 23.95 0 13.23 0 0" style="fill-opacity:1;fill-rule:nonzero;stroke:none" transform="translate(398.97 480.49)" fill="#465a61" data-original="#465a61"></path><path d="M0 0h172.854c13.226 0 23.948-10.722 23.948-23.948v-448.981c0-13.226-10.722-23.948-23.948-23.948H-65.187c-13.226 0-23.948 10.722-23.948 23.948v448.981C-89.135-10.722-78.413 0-65.187 0h30.52" style="stroke-width:15;stroke-linecap:round;stroke-linejoin:round;stroke-miterlimit:10;stroke-dasharray:none;stroke-opacity:1" transform="translate(202.167 504.438)" fill="none" stroke="#000000" stroke-width="15" stroke-linecap="round" stroke-linejoin="round" stroke-miterlimit="10" stroke-dasharray="none" stroke-opacity="" data-original="#000000" class=""></path><path d="M0 0h285.937" style="stroke-width:15;stroke-linecap:round;stroke-linejoin:round;stroke-miterlimit:10;stroke-dasharray:none;stroke-opacity:1" transform="translate(113.031 73)" fill="none" stroke="#000000" stroke-width="15" stroke-linecap="round" stroke-linejoin="round" stroke-miterlimit="10" stroke-dasharray="none" stroke-opacity="" data-original="#000000" class=""></path><path d="M0 0h285.937" style="stroke-width:15;stroke-linecap:round;stroke-linejoin:round;stroke-miterlimit:10;stroke-dasharray:none;stroke-opacity:1" transform="translate(113.031 439)" fill="none" stroke="#000000" stroke-width="15" stroke-linecap="round" stroke-linejoin="round" stroke-miterlimit="10" stroke-dasharray="none" stroke-opacity="" data-original="#000000" class=""></path><path d="M0 0h24.178" style="stroke-width:15;stroke-linecap:round;stroke-linejoin:round;stroke-miterlimit:10;stroke-dasharray:none;stroke-opacity:1" transform="translate(243.911 40.28)" fill="none" stroke="#000000" stroke-width="15" stroke-linecap="round" stroke-linejoin="round" stroke-miterlimit="10" stroke-dasharray="none" stroke-opacity="" data-original="#000000" class=""></path><path d="M0 0c0-5.492-4.452-9.945-9.945-9.945-5.492 0-9.945 4.453-9.945 9.945s4.453 9.945 9.945 9.945C-4.452 9.945 0 5.492 0 0" style="fill-opacity:1;fill-rule:nonzero;stroke:none" transform="translate(234.33 471.72)" fill="#000000" data-original="#000000"></path><path d="M0 0h41.559" style="stroke-width:15;stroke-linecap:round;stroke-linejoin:round;stroke-miterlimit:10;stroke-dasharray:none;stroke-opacity:1" transform="translate(256 471.72)" fill="none" stroke="#000000" stroke-width="15" stroke-linecap="round" stroke-linejoin="round" stroke-miterlimit="10" stroke-dasharray="none" stroke-opacity="" data-original="#000000" class=""></path><path d="M0 0h-86.842c-7.227 0-13.086 5.859-13.086 13.086v9.841c0 31.208 25.299 56.507 56.507 56.507s56.507-25.299 56.507-56.507v-9.841C13.086 5.859 7.228 0 0 0" style="fill-opacity:1;fill-rule:nonzero;stroke:none" transform="translate(299.42 286.863)" fill="#97d729" data-original="#97d729"></path><path d="M0 0v-9.84c0-7.22-5.86-13.08-13.09-13.08h-20.22c7.23 0 13.09 5.86 13.09 13.08V0c0 15.61-6.33 29.73-16.55 39.96-7.97 7.97-18.3 13.56-29.85 15.65 3.28.59 6.66.9 10.11.9 15.6 0 29.73-6.32 39.96-16.55C-6.33 29.73 0 15.61 0 0" style="fill-opacity:1;fill-rule:nonzero;stroke:none" transform="translate(312.51 309.786)" fill="#8bc727" data-original="#8bc727"></path><path d="M0 0h-89.967c-6.364 0-11.524 5.16-11.524 11.524v52.697c0 6.364 5.16 11.524 11.524 11.524H0c6.364 0 11.524-5.16 11.524-11.524V11.524C11.524 5.16 6.364 0 0 0" style="fill-opacity:1;fill-rule:nonzero;stroke:none" transform="translate(300.983 187.757)" fill="#97d729" data-original="#97d729"></path><path d="M0 0h8.98c6.37 0 11.53-5.16 11.53-11.52v-52.698c0-6.37-5.16-11.53-11.53-11.53H0Z" style="fill-opacity:1;fill-rule:nonzero;stroke:none" transform="translate(292 263.502)" fill="#8bc727" data-original="#8bc727"></path><path d="M0 0c-7.561 0-13.69 6.129-13.69 13.69v36.771h27.38V13.69C13.69 6.129 7.561 0 0 0" style="fill-opacity:1;fill-rule:nonzero;stroke:none" transform="translate(228.131 137.296)" fill="#97d729" data-original="#97d729"></path><path d="M0 0c-7.561 0-13.69 6.129-13.69 13.69v36.771h27.38V13.69C13.69 6.129 7.561 0 0 0" style="fill-opacity:1;fill-rule:nonzero;stroke:none" transform="translate(283.869 137.296)" fill="#97d729" data-original="#97d729"></path><path d="M0 0v-36.77c0-7.56-6.13-13.69-13.69-13.69-2.36 0-4.58.6-6.52 1.65 4.27 2.32 7.17 6.84 7.17 12.04V0z" style="fill-opacity:1;fill-rule:nonzero;stroke:none" transform="translate(241.82 187.754)" fill="#8bc727" data-original="#8bc727"></path><path d="M0 0v-36.77c0-7.56-6.13-13.69-13.69-13.69-2.36 0-4.58.6-6.52 1.65 4.27 2.32 7.16 6.84 7.16 12.04V0Z" style="fill-opacity:1;fill-rule:nonzero;stroke:none" transform="translate(297.56 187.754)" fill="#8bc727" data-original="#8bc727"></path><path d="M0 0h-86.842c-7.227 0-13.086 5.859-13.086 13.086v9.841c0 31.208 25.299 56.507 56.507 56.507s56.507-25.299 56.507-56.507v-9.841C13.086 5.859 7.228 0 0 0Z" style="stroke-width:15;stroke-linecap:round;stroke-linejoin:round;stroke-miterlimit:10;stroke-dasharray:none;stroke-opacity:1" transform="translate(299.42 286.863)" fill="none" stroke="#000000" stroke-width="15" stroke-linecap="round" stroke-linejoin="round" stroke-miterlimit="10" stroke-dasharray="none" stroke-opacity="" data-original="#000000" class=""></path><path d="m0 0-7.194 13.344" style="stroke-width:15;stroke-linecap:round;stroke-linejoin:round;stroke-miterlimit:10;stroke-dasharray:none;stroke-opacity:1" transform="translate(231.58 361.362)" fill="none" stroke="#000000" stroke-width="15" stroke-linecap="round" stroke-linejoin="round" stroke-miterlimit="10" stroke-dasharray="none" stroke-opacity="" data-original="#000000" class=""></path><path d="m0 0 7.194 13.344" style="stroke-width:15;stroke-linecap:round;stroke-linejoin:round;stroke-miterlimit:10;stroke-dasharray:none;stroke-opacity:1" transform="translate(280.42 361.362)" fill="none" stroke="#000000" stroke-width="15" stroke-linecap="round" stroke-linejoin="round" stroke-miterlimit="10" stroke-dasharray="none" stroke-opacity="" data-original="#000000" class=""></path><path d="M0 0v-7.205" style="stroke-width:15;stroke-linecap:round;stroke-linejoin:round;stroke-miterlimit:10;stroke-dasharray:none;stroke-opacity:1" transform="translate(234.33 323.863)" fill="none" stroke="#000000" stroke-width="15" stroke-linecap="round" stroke-linejoin="round" stroke-miterlimit="10" stroke-dasharray="none" stroke-opacity="" data-original="#000000" class=""></path><path d="M0 0v-7.205" style="stroke-width:15;stroke-linecap:round;stroke-linejoin:round;stroke-miterlimit:10;stroke-dasharray:none;stroke-opacity:1" transform="translate(277.67 323.863)" fill="none" stroke="#000000" stroke-width="15" stroke-linecap="round" stroke-linejoin="round" stroke-miterlimit="10" stroke-dasharray="none" stroke-opacity="" data-original="#000000" class=""></path><path d="M0 0v-2.219c0-6.364-5.16-11.524-11.524-11.524h-89.967c-6.364 0-11.524 5.16-11.524 11.524v52.697c0 6.364 5.16 11.523 11.524 11.523h89.967C-5.16 62.001 0 56.842 0 50.478V35" style="stroke-width:15;stroke-linecap:round;stroke-linejoin:round;stroke-miterlimit:10;stroke-dasharray:none;stroke-opacity:1" transform="translate(312.507 201.5)" fill="none" stroke="#000000" stroke-width="15" stroke-linecap="round" stroke-linejoin="round" stroke-miterlimit="10" stroke-dasharray="none" stroke-opacity="" data-original="#000000" class=""></path><path d="M0 0c-7.561 0-13.69 6.129-13.69 13.69v28.106c0 7.561 6.129 13.691 13.69 13.691s13.69-6.13 13.69-13.691V13.69C13.69 6.129 7.561 0 0 0" style="fill-opacity:1;fill-rule:nonzero;stroke:none" transform="translate(351.293 208.012)" fill="#97d729" data-original="#97d729"></path><path d="M0 0c-7.561 0-13.69 6.129-13.69 13.69v28.106c0 7.561 6.129 13.691 13.69 13.691s13.69-6.13 13.69-13.691V13.69C13.69 6.129 7.561 0 0 0" style="fill-opacity:1;fill-rule:nonzero;stroke:none" transform="translate(160.707 208.012)" fill="#97d729" data-original="#97d729"></path><path d="M0 0v-28.11C0-35.67-6.13-41.8-13.69-41.8c-2.59 0-5.01.72-7.08 1.97 3.96 2.41 6.6 6.75 6.6 11.72V0c0 3.78-1.53 7.2-4.01 9.68-.78.78-1.65 1.46-2.59 2.04 2.07 1.25 4.49 1.97 7.08 1.97 3.78 0 7.2-1.53 9.68-4.01C-1.53 7.2 0 3.78 0 0" style="fill-opacity:1;fill-rule:nonzero;stroke:none" transform="translate(364.98 249.811)" fill="#8bc727" data-original="#8bc727"></path><path d="M0 0v-28.11C0-35.67-6.13-41.8-13.69-41.8c-2.59 0-5.02.72-7.09 1.97 3.96 2.41 6.6 6.75 6.6 11.72V0c0 3.78-1.53 7.2-4.01 9.68-.78.78-1.65 1.46-2.59 2.04 2.07 1.25 4.5 1.97 7.09 1.97 3.78 0 7.2-1.53 9.68-4.01C-1.53 7.2 0 3.78 0 0" style="fill-opacity:1;fill-rule:nonzero;stroke:none" transform="translate(174.4 249.811)" fill="#8bc727" data-original="#8bc727"></path><path d="M0 0v0c-7.561 0-13.69 6.129-13.69 13.69v28.106c0 7.561 6.129 13.691 13.69 13.691s13.69-6.13 13.69-13.691V13.69C13.69 6.129 7.561 0 0 0Z" style="stroke-width:15;stroke-linecap:round;stroke-linejoin:round;stroke-miterlimit:10;stroke-dasharray:none;stroke-opacity:1" transform="translate(351.293 208.012)" fill="none" stroke="#000000" stroke-width="15" stroke-linecap="round" stroke-linejoin="round" stroke-miterlimit="10" stroke-dasharray="none" stroke-opacity="" data-original="#000000" class=""></path><path d="M0 0v0c-7.561 0-13.69 6.129-13.69 13.69v28.106c0 7.561 6.129 13.691 13.69 13.691s13.69-6.13 13.69-13.691V13.69C13.69 6.129 7.561 0 0 0Z" style="stroke-width:15;stroke-linecap:round;stroke-linejoin:round;stroke-miterlimit:10;stroke-dasharray:none;stroke-opacity:1" transform="translate(160.707 208.012)" fill="none" stroke="#000000" stroke-width="15" stroke-linecap="round" stroke-linejoin="round" stroke-miterlimit="10" stroke-dasharray="none" stroke-opacity="" data-original="#000000" class=""></path><path d="M0 0v0c-7.561 0-13.69 6.129-13.69 13.69v36.771h27.38V13.69C13.69 6.129 7.561 0 0 0Z" style="stroke-width:15;stroke-linecap:round;stroke-linejoin:round;stroke-miterlimit:10;stroke-dasharray:none;stroke-opacity:1" transform="translate(228.131 137.296)" fill="none" stroke="#000000" stroke-width="15" stroke-linecap="round" stroke-linejoin="round" stroke-miterlimit="10" stroke-dasharray="none" stroke-opacity="" data-original="#000000" class=""></path><path d="M0 0v0c-7.561 0-13.69 6.129-13.69 13.69v36.771h27.38V13.69C13.69 6.129 7.561 0 0 0Z" style="stroke-width:15;stroke-linecap:round;stroke-linejoin:round;stroke-miterlimit:10;stroke-dasharray:none;stroke-opacity:1" transform="translate(283.869 137.296)" fill="none" stroke="#000000" stroke-width="15" stroke-linecap="round" stroke-linejoin="round" stroke-miterlimit="10" stroke-dasharray="none" stroke-opacity="" data-original="#000000" class=""></path><path d="M0 0v4.583" style="stroke-width:15;stroke-linecap:round;stroke-linejoin:round;stroke-miterlimit:10;stroke-dasharray:none;stroke-opacity:1" transform="translate(327.209 399.732)" fill="none" stroke="#000000" stroke-width="15" stroke-linecap="round" stroke-linejoin="round" stroke-miterlimit="10" stroke-dasharray="none" stroke-opacity="" data-original="#000000" class=""></path><path d="M0 0v9.167" style="stroke-width:15;stroke-linecap:round;stroke-linejoin:round;stroke-miterlimit:10;stroke-dasharray:none;stroke-opacity:1" transform="translate(350.227 399.732)" fill="none" stroke="#000000" stroke-width="15" stroke-linecap="round" stroke-linejoin="round" stroke-miterlimit="10" stroke-dasharray="none" stroke-opacity="" data-original="#000000" class=""></path><path d="M0 0v13.75" style="stroke-width:15;stroke-linecap:round;stroke-linejoin:round;stroke-miterlimit:10;stroke-dasharray:none;stroke-opacity:1" transform="translate(373.245 399.732)" fill="none" stroke="#000000" stroke-width="15" stroke-linecap="round" stroke-linejoin="round" stroke-miterlimit="10" stroke-dasharray="none" stroke-opacity="" data-original="#000000" class=""></path></g></g></svg>