<svg xmlns="http://www.w3.org/2000/svg" version="1.1" xmlns:xlink="http://www.w3.org/1999/xlink" xmlns:svgjs="http://svgjs.com/svgjs" width="512" height="512" x="0" y="0" viewBox="0 0 512 512" style="enable-background:new 0 0 512 512" xml:space="preserve" class=""><g><path d="M364.719 426.844H504.5v31.062H364.719z" style="" fill="#e9f1ff" data-original="#e9f1ff"></path><path d="M474.5 426.844h30v31.062h-30z" style="" fill="#d7e4f7" data-original="#d7e4f7"></path><path d="M7.5 426.844h139.781v31.062H7.5z" style="" fill="#e9f1ff" data-original="#e9f1ff"></path><path d="M117.281 426.844h30v31.062h-30z" style="" fill="#d7e4f7" data-original="#d7e4f7"></path><path d="M147.281 380.25h217.438V504.5H147.281z" style="" fill="#99e6fc" data-original="#99e6fc"></path><path d="M334.719 380.25h30V504.5h-30z" style="" fill="#62dbfb" data-original="#62dbfb"></path><path d="M224.938 349.147h62.125v31.103h-62.125z" style="" fill="#e9f1ff" data-original="#e9f1ff"></path><path d="M257.062 349.147h30v31.103h-30z" style="" fill="#d7e4f7" data-original="#d7e4f7"></path><path d="M224.938 224.878h62.125v31.103h-62.125z" style="" fill="#e9f1ff" data-original="#e9f1ff"></path><path d="M257.062 224.878h30v31.103h-30z" style="" fill="#d7e4f7" data-original="#d7e4f7"></path><path d="M224.938 100.669h62.125v31.103h-62.125z" style="" fill="#e9f1ff" data-original="#e9f1ff"></path><path d="M257.062 100.669h30v31.103h-30z" style="" fill="#d7e4f7" data-original="#d7e4f7"></path><path d="M100.688 7.502h310.625v93.187H100.688z" style="" fill="#3d5b54" data-original="#3d5b54" class=""></path><path d="M381.312 7.502h30v93.187h-30z" style="" fill="#324c4a" data-original="#324c4a" class=""></path><path d="M100.688 131.731h310.625v93.187H100.688z" style="" fill="#3d5b54" data-original="#3d5b54" class=""></path><path d="M381.312 131.731h30v93.187h-30z" style="" fill="#324c4a" data-original="#324c4a" class=""></path><path d="M100.688 255.96h310.625v93.187H100.688z" style="" fill="#3d5b54" data-original="#3d5b54" class=""></path><path d="M381.312 255.96h30v93.187h-30z" style="" fill="#324c4a" data-original="#324c4a" class=""></path><circle cx="364.719" cy="54.096" r="15.531" style="" fill="#99e6fc" data-original="#99e6fc"></circle><circle cx="364.719" cy="178.325" r="15.531" style="" fill="#99e6fc" data-original="#99e6fc"></circle><circle cx="364.719" cy="302.554" r="15.531" style="" fill="#99e6fc" data-original="#99e6fc"></circle><path d="M411.311 70.44v30.25H100.689V7.5h310.622v30.25" style="stroke-width:15;stroke-linecap:round;stroke-linejoin:round;stroke-miterlimit:10;" fill="none" stroke="#000000" stroke-width="15" stroke-linecap="round" stroke-linejoin="round" stroke-miterlimit="10" data-original="#000000" class=""></path><circle cx="364.719" cy="54.096" r="15.531" style="stroke-width:15;stroke-linecap:round;stroke-linejoin:round;stroke-miterlimit:10;" fill="none" stroke="#000000" stroke-width="15" stroke-linecap="round" stroke-linejoin="round" stroke-miterlimit="10" data-original="#000000" class=""></circle><path d="M131.75 38.564h155.312M131.75 69.627h155.312M100.689 194.671v30.25h310.622V131.73H100.689v30.251" style="stroke-width:15;stroke-linecap:round;stroke-linejoin:round;stroke-miterlimit:10;" fill="none" stroke="#000000" stroke-width="15" stroke-linecap="round" stroke-linejoin="round" stroke-miterlimit="10" data-original="#000000" class=""></path><circle cx="364.719" cy="178.325" r="15.531" style="stroke-width:15;stroke-linecap:round;stroke-linejoin:round;stroke-miterlimit:10;" fill="none" stroke="#000000" stroke-width="15" stroke-linecap="round" stroke-linejoin="round" stroke-miterlimit="10" data-original="#000000" class=""></circle><path d="M131.75 162.794h155.312M131.75 193.856h155.312M411.311 318.901v30.25H100.689v-93.19h310.622v30.25" style="stroke-width:15;stroke-linecap:round;stroke-linejoin:round;stroke-miterlimit:10;" fill="none" stroke="#000000" stroke-width="15" stroke-linecap="round" stroke-linejoin="round" stroke-miterlimit="10" data-original="#000000" class=""></path><circle cx="364.719" cy="302.554" r="15.531" style="stroke-width:15;stroke-linecap:round;stroke-linejoin:round;stroke-miterlimit:10;" fill="none" stroke="#000000" stroke-width="15" stroke-linecap="round" stroke-linejoin="round" stroke-miterlimit="10" data-original="#000000" class=""></circle><path d="M131.75 287.023h155.312M131.75 318.085h155.312M209.407 411.313l-31.063 31.062 31.063 31.063M271.532 411.313l-31.063 62.125M302.594 411.313l31.062 31.062-31.062 31.063" style="stroke-width:15;stroke-linecap:round;stroke-linejoin:round;stroke-miterlimit:10;" fill="none" stroke="#000000" stroke-width="15" stroke-linecap="round" stroke-linejoin="round" stroke-miterlimit="10" data-original="#000000" class=""></path><path d="M147.281 380.25h217.438V504.5H147.281zM364.719 426.844H504.5v31.062H364.719zM7.5 426.844h139.781v31.062H7.5zM224.938 349.147h62.125v31.103h-62.125zM224.938 224.878h62.125v31.103h-62.125zM224.938 100.669h62.125v31.103h-62.125z" style="stroke-width:15;stroke-linecap:round;stroke-linejoin:round;stroke-miterlimit:10;" fill="none" stroke="#000000" stroke-width="15" stroke-linecap="round" stroke-linejoin="round" stroke-miterlimit="10" data-original="#000000" class=""></path></g></svg>