<svg xmlns="http://www.w3.org/2000/svg" version="1.1" xmlns:xlink="http://www.w3.org/1999/xlink" xmlns:svgjs="http://svgjs.com/svgjs" width="512" height="512" x="0" y="0" viewBox="0 0 512 512" style="enable-background:new 0 0 512 512" xml:space="preserve" class=""><g><path d="M309.459 12.043 203.775 264.596l-81.91 39.39-5.232-34.239-8.63-56.454 44.562-201.25z" style="" fill="#f2f2f2" data-original="#f2f2f2" class=""></path><path d="m201.272 55.661-73.25 223.7-11.389-9.614-8.63-56.454 37.882-171.074z" style="" fill="#dbdbdb" data-original="#dbdbdb"></path><path d="m309.459 12.043-26.544 63.441h-.01l-81.633-19.823 14.282-43.618z" style="" fill="#ffddb0" data-original="#ffddb0"></path><path d="m215.554 12.043-14.282 43.618-55.387-13.442 6.68-30.176z" style="" fill="#e2be91" data-original="#e2be91" class=""></path><path d="M481.232 352.077a127.597 127.597 0 0 1-5.819 7.644c-15.564 18.911-35.681 32.25-57.619 39.533-26.536 8.819-55.739 8.777-82.759-.963-10.415-3.748-20.507-8.941-29.998-15.625s-17.781-14.433-24.825-22.978c-18.274-22.154-28.157-49.634-28.798-77.589-.538-23.11 5.238-46.552 17.802-67.577a128.415 128.415 0 0 1 5.233-8.05c16.133-22.911 38.493-38.835 63.175-47.091 24.66-8.252 51.641-8.847 77.039-1.113 12.534 3.814 24.684 9.661 35.982 17.616 11.297 7.955 20.894 17.42 28.709 27.935 15.844 21.301 24.378 46.904 24.925 72.905.544 26.019-6.915 52.443-23.047 75.353z" style="" fill="#f2f2f2" data-original="#f2f2f2" class=""></path><path d="M320.301 387.918a122.06 122.06 0 0 0 6.15 6.919 126.542 126.542 0 0 1-21.415-12.169 126.518 126.518 0 0 1-24.825-22.978c-18.274-22.154-28.157-49.634-28.798-77.589-.538-23.11 5.238-46.552 17.802-67.577a128.415 128.415 0 0 1 5.233-8.05c16.133-22.911 38.493-38.835 63.175-47.091 24.66-8.253 51.641-8.847 77.039-1.113 12.534 3.814 24.684 9.661 35.982 17.616a127.04 127.04 0 0 1 18.678 16.056 124.845 124.845 0 0 0-14.569-5.442c-25.398-7.733-52.379-7.138-77.039 1.113-24.682 8.256-47.043 24.18-63.175 47.091a128.866 128.866 0 0 0-5.233 8.05c-12.563 21.024-18.34 44.467-17.802 67.577.641 27.953 10.524 55.434 28.797 77.587z" style="" fill="#dbdbdb" data-original="#dbdbdb"></path><path d="M280.211 359.688c-18.274-22.154-28.157-49.634-28.798-77.589 14.395 7.636 29.449 19.587 37.712 29.566.449 13.193-3.015 32.608-8.914 48.023z" style="" fill="#404347" data-original="#404347"></path><path d="M417.794 399.255c-26.536 8.819-55.739 8.777-82.759-.963 12.525-10.75 29.636-20.555 42.21-24.578 12.178 4.415 28.508 14.564 40.549 25.541z" style="" fill="#5a5c60" data-original="#5a5c60" class=""></path><path d="M321.589 207.485c-13.359 5.13-35.116 8.301-52.374 7.037a128.415 128.415 0 0 1 5.233-8.05c16.133-22.911 38.493-38.835 63.175-47.091-2.173 16.757-8.908 36.387-16.034 48.104z" style="" fill="#404347" data-original="#404347"></path><path d="M481.232 352.077a127.597 127.597 0 0 1-5.819 7.644c-7.004-15.827-11.357-37.382-11.029-51.689 8.629-10.659 24.844-23.62 39.893-31.31.546 26.021-6.913 52.445-23.045 75.355zM479.351 203.818c-15.777 1.427-33.927-.067-45.87-3.565-3.674-5.055-7.405-11.761-10.713-19.121-3.271-7.296-6.131-15.238-8.107-22.867 12.534 3.814 24.684 9.661 35.982 17.616a127.04 127.04 0 0 1 18.678 16.056 125.144 125.144 0 0 1 10.03 11.881z" style="" fill="#5a5c60" data-original="#5a5c60" class=""></path><path d="M469.321 191.939a124.845 124.845 0 0 0-14.569-5.442 125.765 125.765 0 0 0-31.983-5.363c-3.271-7.296-6.131-15.238-8.107-22.867 12.534 3.814 24.684 9.661 35.982 17.616a127.075 127.075 0 0 1 18.677 16.056z" style="" fill="#404347" data-original="#404347"></path><path d="M410.631 232.703c-18.013-5.269-50.151-5.995-66.951.992-11.268 16.002-20.069 44.577-19.745 63.981a104.282 104.282 0 0 0 54.748 38.551c18.378-6.236 44.189-26.817 53.582-40.156.915-18.172-10.602-48.184-21.634-63.368z" style="" fill="#5a5c60" data-original="#5a5c60" class=""></path><path d="m7.695 278.11 163.914 163.914c25.52 25.52 74.068 62.332 101.313 50.316l16.686-16.686s20.374-24.775-43.425-76.796l-42.409-134.263s-35.027 27.585-62.613 0c-27.585-27.585-37.298-63.022-37.298-63.022l-58.891 39.261L7.695 278.11z" style="" fill="#ed3b3b" data-original="#ed3b3b" class=""></path><path d="M103.864 201.572s3.068 11.198 10.656 25.91l-5.876 3.917a532.513 532.513 0 0 0-81.136 66.519L7.693 278.104l37.276-37.276 58.895-39.256z" style="" fill="#d62727" data-original="#d62727"></path><path d="m289.61 475.655-16.688 16.688c-27.246 12.011-75.794-24.795-101.318-50.319L7.692 278.112l25.499-25.5 19.81 19.81 144.102 144.102c23.718 23.718 67.315 57.178 95.217 52.153h.01c-.827 4.674-2.72 6.978-2.72 6.978z" style="" fill="#f2f2f2" data-original="#f2f2f2" class=""></path><path d="m53.001 272.423-25.494 25.494-19.81-19.809 25.494-25.494 19.81 19.809z" style="" fill="#dbdbdb" data-original="#dbdbdb"></path><path d="M511.97 276.562c-.591-28.131-9.735-54.873-26.442-77.335-8.477-11.405-18.723-21.376-30.454-29.637-11.735-8.263-24.577-14.549-38.17-18.685-26.788-8.156-55.048-7.749-81.721 1.177-27.255 9.118-50.433 26.393-67.027 49.96a136.46 136.46 0 0 0-5.545 8.533 133.527 133.527 0 0 0-18.89 71.701c.688 30.026 11.54 59.258 30.553 82.307a134.37 134.37 0 0 0 26.333 24.377 134.37 134.37 0 0 0 31.818 16.572c14.557 5.247 29.935 7.876 45.338 7.876 14.345 0 28.713-2.28 42.458-6.848a133.591 133.591 0 0 0 61.138-41.949 136.596 136.596 0 0 0 6.167-8.102l-.001.001c16.594-23.571 25.049-51.214 24.445-79.948zm-39.898 34.293c6.014-6.844 14.843-14.276 24.017-20.373-1.755 18.891-7.997 36.963-18.393 53.074-3.316-11.01-5.455-23.119-5.624-32.701zm24.325-38.616c-12.555 7.085-25.423 17.113-34.315 26.725l-22.168-8.256c-1.011-18.258-10.134-42.36-19.94-57.906l16.75-23.789c8.898 1.971 19.641 3.037 30.246 3.037 2.902 0 5.789-.088 8.628-.25 12.37 17.894 19.508 38.623 20.799 60.439zm-117.928 55.868c-18.491-5.985-34.965-17.589-46.829-32.98.427-16.88 7.852-40.89 17.053-55.106 14.729-5.082 41.205-4.57 57.22-.619 9.113 13.737 18.514 38.47 18.704 54.053-9.083 11.566-30.464 28.449-46.148 34.652zm84.63-131.506c-8.982-.241-17.87-1.3-24.902-3.045-4.016-6.035-8.009-14.047-11.264-22.421a119.502 119.502 0 0 1 19.279 11.038 119.508 119.508 0 0 1 16.887 14.428zm-85.184-36.132c10.235 0 20.468 1.341 30.494 4.018 3.741 12.695 9.543 25.837 15.729 35.664l-16.751 23.79c-17.942-3.992-43.709-4.458-61.238.744l-15.246-18.089c6.05-11.607 11.153-27.096 13.595-41.304 10.967-3.211 22.193-4.823 33.417-4.823zm-50.489 11.259c-2.651 10.691-6.671 21.505-11.085 29.469-9.082 3.071-21.201 5.141-32.677 5.728 11.663-15.213 26.572-27.179 43.762-35.197zm-53.865 50.704c1.188.034 2.383.062 3.598.062 14.053 0 29.762-2.242 41.942-6.02l15.029 17.832c-9.609 16.109-16.799 39.582-17.779 58.124l-25.086 10.082c-8.363-8.79-20.399-18.127-32.177-24.942a118.116 118.116 0 0 1 14.473-55.138zm3.882 120.317c-8.81-13.975-14.647-29.753-17.08-46.157 8.107 5.592 15.783 12.082 21.103 17.982-.06 8.181-1.56 18.399-4.023 28.175zm11.521 15.325c4.508-13.238 7.445-28.697 7.845-41.202l24.618-9.893c12.919 15.804 30.11 27.909 49.344 34.745l-1.018 26.51c-11.641 4.591-25.205 12.567-36.149 21.274a119.165 119.165 0 0 1-24.136-13.132 119.212 119.212 0 0 1-20.504-18.302zm62.95 37.114c8.373-5.613 17.489-10.469 25.172-13.285 7.349 3.021 16.048 8.061 24.047 13.811-16.266 3.238-33.089 3.06-49.219-.526zm67.559-4.685c-10.388-8.793-23.237-16.978-34.332-21.891l1.038-27.055c17.147-7.413 37.737-23.588 48.651-36.319l21.935 8.169c.596 13.84 4.306 30.977 9.737 44.885a118.177 118.177 0 0 1-47.029 32.211z" fill="#000000" data-original="#000000" class=""></path><path d="m252.834 394.362-3.742-11.847a7.695 7.695 0 1 0-14.675 4.635l4.429 14.025a7.68 7.68 0 0 0 2.475 3.647c34.209 27.893 42.329 46.444 43.485 56.634-22.866-1.022-57.665-25.783-82.256-50.373l-96.582-96.582a7.696 7.696 0 0 0-10.883 10.882l96.582 96.582c5.51 5.51 49.321 48.291 86.522 54.224l-9.592 9.592c-9.608 3.384-24.831-.547-43.113-11.176-15.577-9.056-33.682-23.27-48.435-38.022L18.578 278.11l14.618-14.617 45.268 45.27a7.67 7.67 0 0 0 5.442 2.254 7.695 7.695 0 0 0 5.442-13.136l-45.268-45.27 5.796-5.796 49.932-33.29c4.998 13.044 15.988 36.589 35.911 56.512 13.367 13.366 30.375 17.621 49.185 12.309 5.64-1.593 10.617-3.838 14.531-5.938l7.862 24.888-9.533 1.644a7.694 7.694 0 0 0-6.275 8.892 7.696 7.696 0 0 0 8.89 6.276l11.595-2 1.203 3.808-9.128 1.69a7.697 7.697 0 0 0 1.391 15.264c.465 0 .937-.043 1.411-.13l10.995-2.037 1.192 3.775-9.593 1.776a7.697 7.697 0 0 0 1.391 15.264c.465 0 .937-.043 1.411-.13l11.461-2.123 4.157 13.158a7.694 7.694 0 0 0 9.655 5.02 7.694 7.694 0 0 0 5.02-9.656l-3.587-11.357c4.062-.867 6.722-4.81 5.961-8.919a7.695 7.695 0 0 0-8.969-6.166l-1.66.308-1.192-3.775.257-.047a7.697 7.697 0 0 0 6.167-8.968 7.697 7.697 0 0 0-8.969-6.166l-2.125.394-1.144-3.623 1.562-.269a7.694 7.694 0 0 0 6.275-8.892 7.696 7.696 0 0 0-8.891-6.276l-3.625.625-10.641-33.689 39.024-93.256a7.695 7.695 0 0 0-4.128-10.069 7.692 7.692 0 0 0-10.07 4.128l-39.28 93.871c-6.393 4.409-31.185 19.231-50.902-.486-15.739-15.738-25.397-34.398-30.551-46.598l25.97-117.301c2.549.919 5.593 1.904 9.253 2.992 20.742 6.161 55.796 13.786 104.274 22.682l-8.938 21.36a7.695 7.695 0 0 0 7.096 10.667 7.696 7.696 0 0 0 7.102-4.727l55.743-133.214a7.695 7.695 0 0 0-4.128-10.069 7.697 7.697 0 0 0-10.07 4.128l-24.013 57.384L155.027 36.52l5.05-22.812a7.695 7.695 0 1 0-15.026-3.326L104.418 193.91a7.67 7.67 0 0 0-4.822 1.26l-58.788 39.192a7.67 7.67 0 0 0-1.276 1.027l-11.778 11.778c-.01.01-.018.022-.029.032l-25.472 25.47a7.698 7.698 0 0 0 0 10.882l9.927 9.927-9.292 9.292a7.694 7.694 0 0 0 5.441 13.136 7.668 7.668 0 0 0 5.441-2.254l9.293-9.292 30.065 30.065-9.292 9.292a7.695 7.695 0 0 0 5.442 13.136 7.672 7.672 0 0 0 5.442-2.254l9.292-9.292 30.065 30.065-9.292 9.291a7.694 7.694 0 0 0 5.441 13.136 7.668 7.668 0 0 0 5.441-2.254l9.292-9.292 30.064 30.064-9.292 9.292a7.695 7.695 0 1 0 10.884 10.882l9.291-9.292 20.26 20.26c1.397 1.397 4.969 4.906 10.097 9.509l-9.586 9.586a7.695 7.695 0 0 0 5.442 13.136 7.672 7.672 0 0 0 5.442-2.254l10.438-10.438c9.28 7.546 20.671 15.896 32.69 22.592l-4.02 6.154a7.695 7.695 0 0 0 6.436 11.905 7.688 7.688 0 0 0 6.449-3.488l5.076-7.77c8.913 3.682 17.854 5.995 26.256 5.994 5.31-.001 10.41-.926 15.143-3.014a7.695 7.695 0 0 0 2.335-1.6l16.688-16.686c.175-.176.344-.361.502-.554.992-1.206 5.877-7.843 4.655-20.116-1.937-19.423-17.871-41.641-47.375-66.053zm19.493-313.527-10.695 25.558C180.334 91.56 153.764 83.396 145.381 80.095L151.7 51.55l120.627 29.285z" fill="#000000" data-original="#000000" class=""></path></g></svg>