<svg xmlns="http://www.w3.org/2000/svg" version="1.1" xmlns:xlink="http://www.w3.org/1999/xlink" xmlns:svgjs="http://svgjs.com/svgjs" width="512" height="512" x="0" y="0" viewBox="0 0 512 512" style="enable-background:new 0 0 512 512" xml:space="preserve" class=""><g><path d="M512 256c0 82.317-38.86 155.564-99.234 202.397C369.455 492.001 315.068 512 256 512c-58.535 0-112.473-19.644-155.596-52.705C39.361 412.515 0 338.85 0 256 0 114.615 114.615 0 256 0s256 114.615 256 256z" style="" fill="#f2f2f2" data-original="#f2f2f2" class=""></path><path d="m441.992 119.474-29.226 338.923C369.455 492.001 315.068 512 256 512c-58.535 0-112.473-19.644-155.596-52.705L71.105 119.474h370.887z" style="" fill="#e64c18" data-original="#e64c18" class=""></path><path d="M256.546 151.249v352.918L378.46 469.75l27.195-318.501z" style="" fill="#f36518" data-original="#f36518" class=""></path><path d="m140.903 195.528 11.955 141.563h158.903l-5.199 58.477-50.013 13.544-52.089-14.592-1.308-36.459h-48.521l6.074 71.88 95.844 27.087 95.843-27.087 11.878-140.646H196.928l-4.153-45.839-.001-.002 175.452-.919 3.968-47.007z" style="" fill="#ffffff" data-original="#ffffff" class=""></path><path d="M151.159 16.796v24.321h-23.238V16.796h-21.618v69.717h21.618V63.815h23.238v22.698h21.618V16.796zM249.521 16.796h-66.476v24.321h21.618v45.938h23.24V41.117h21.618zM373.284 64.895V17.337h-23.24v69.718H406.79v-22.16zM314.914 17.337l-16.212 24.86-16.214-24.86h-23.239v69.718h23.239v-34.59l16.214 24.862 16.212-24.862v34.59h23.24V17.337z" fill="#000000" data-original="#000000" class=""></path></g></svg>