<svg xmlns="http://www.w3.org/2000/svg" version="1.1" xmlns:xlink="http://www.w3.org/1999/xlink" xmlns:svgjs="http://svgjs.com/svgjs" width="512" height="512" x="0" y="0" viewBox="0 0 512 512" style="enable-background:new 0 0 512 512" xml:space="preserve" class=""><g><path d="M512 256c0 94.187-50.866 176.504-126.642 220.954a223.322 223.322 0 0 1-6.186 3.511C342.632 500.569 300.659 512 256 512c-34.544 0-67.48-6.844-97.541-19.247a245.356 245.356 0 0 1-14.252-6.395C58.838 444.865 0 357.303 0 256 0 114.615 114.615 0 256 0s256 114.615 256 256z" style="" fill="#f2f2f2" data-original="#f2f2f2" class=""></path><path d="M289.623 4.605c7.587 28.969 5.518 43.454-34.487 76.562s-46.213 33.797-46.213 54.489 30.694 53.455 45.523 62.767c0 0-2.414-5.863-7.932-14.829-5.518-8.966-22.416-24.141-19.313-47.247s51.903-52.593 64.491-74.837c12.587-22.246 9.657-41.041-2.069-56.905z" style="" fill="#de0a17" data-original="#de0a17"></path><path d="M333.767 77.717c-34.487 11.381-77.251 29.314-77.251 64.146s22.071 28.279 22.071 46.902-12.071 24.141-12.071 24.141 31.728-12.071 30.349-36.212-20.347-20.692-20.347-43.109c0-28.374 57.249-55.868 57.249-55.868z" style="" fill="#de0a17" data-original="#de0a17"></path><path d="M211.682 201.182c-34.487 0-58.283 12.76-58.283 20.002s42.419 14.14 88.287 11.036 70.009-6.897 88.287-17.934c0 0-32.418 7.587-57.249 7.587s-95.794 4.438-94.149-6.208c1.645-10.645 42.765-14.484 42.765-14.484l-9.658.001zM198.921 241.531c-18.278 6.553-23.107 13.105-12.415 20.003 10.691 6.897 31.728 8.966 60.697 8.966s69.32-10.002 69.32-10.002l-13.105-10.347s-17.934 6.553-52.076 6.553-68.457.864-52.421-15.173zM207.198 280.502c-17.934 6.208-21.727 14.484-5.863 22.071 15.864 7.587 46.213 8.966 68.629 5.863 22.416-3.103 41.384-10.002 41.384-10.002s-12.243-4.656-17.934-10.347c0 0-26.21 5.518-51.041 5.518s-44.831-3.447-35.175-13.103zM341.009 203.25s8.621-11.726 30.349-2.759c21.727 8.966 21.037 33.108 1.379 47.592s-43.454 19.313-43.454 19.313 44.144-19.313 43.109-43.109c-1.034-23.795-21.383-23.105-31.383-21.037z" style="" fill="#de0a17" data-original="#de0a17"></path><path d="M164.435 328.78c67.943 12.415 171.404-.342 189.676-4.821 18.282-4.49 11.588-14.216 11.588-14.216 4.469 3.156 6.456 6.632 4.625 10.419-10.005 20.692-105.189 24.137-133.124 24.137s-112.773-1.718-112.773-16.895c0-14.991 40.029-24.262 54.969-20.816-28.101 8.039-44.779 16.74-14.961 22.192z" style="" fill="#de0a17" data-original="#de0a17"></path><path d="M172.194 350.941s24.055 18.364 143.811 7.759c47.851-3.88 67.767-15.778 70.354-28.969 0 0-21.986 12.415-49.145 17.589-27.157 5.174-71.905 13.192-165.02 3.621zM169.88 377.49h-19.884c.439 16.687.878 31.347.878 46.582 0 11.609-.439 25.245-.439 38.881 0 9.007-2.058 16.603-6.228 23.406a246.338 246.338 0 0 0 14.252 6.395c7.147-8.652 11.212-19.383 10.982-32.841-.293-11.034-.293-25.245-.293-35.84 0-15.821.293-31.202.732-46.583zM303.762 405.64l-12.048 35.694c-2.173 6.531-3.772 12.769-5.224 19.007h-1.306c-1.014-6.384-2.466-12.184-4.932-19.007l-3.918-11.463c-2.905-8.119-5.371-16.687-7.544-24.952l-20.02 2.466 27.857 72.255 14.367-1.452 16.969-43.959c3.344-8.558 7.69-18.725 11.755-27.721l-15.956-.868zM359.664 404.908c-8.119 0-17.408 1.745-29.738 8.568l3.187 11.316 1.16.721c7.983-5.799 15.099-8.558 20.605-8.558 7.398 0 12.915 4.932 12.915 12.779v6.374c-31.775 4.796-39.612 14.66-39.612 26.122 0 12.048 8.568 18.568 18.139 18.568 7.983 0 14.942-4.786 21.191-10.01l1.296.293c1.296 6.52 5.601 8.986 10.365 9.383a224.79 224.79 0 0 0 6.186-3.511V427.55c0-15.233-9.143-22.642-25.694-22.642zm8.13 57.031c-5.214 4.504-9.571 6.823-13.49 6.823-4.932 0-8.997-3.187-8.997-9.435 0-6.677 4.493-11.609 22.486-14.221v16.833zM215.009 404.919c-8.119 0-17.408 1.735-29.748 8.558l3.197 11.316 1.16.731c7.983-5.81 15.088-8.568 20.605-8.568 7.398 0 12.915 4.932 12.915 12.769v6.384c-31.775 4.796-39.612 14.66-39.612 26.122 0 12.048 8.558 18.568 18.139 18.568 7.973 0 14.942-4.786 21.18-10.01l1.306.293c1.452 7.398 6.823 9.582 12.33 9.435 1.358 0 2.779-.167 4.211-.47v-52.496c0-15.234-9.143-22.632-25.683-22.632zm8.129 57.02c-5.224 4.504-9.582 6.823-13.5 6.823-4.932 0-8.997-3.197-8.997-9.435 0-6.677 4.504-11.609 22.497-14.221v16.833z" style="" fill="#de0a17" data-original="#de0a17"></path></g></svg>