<svg xmlns="http://www.w3.org/2000/svg" version="1.1" xmlns:xlink="http://www.w3.org/1999/xlink" xmlns:svgjs="http://svgjs.com/svgjs" width="512" height="512" x="0" y="0" viewBox="0 0 23.136 23.136" style="enable-background:new 0 0 512 512" xml:space="preserve" class=""><g><path d="M21.658 0H1.477C.662 0 0 .661 0 1.477v20.182c0 .814.662 1.477 1.477 1.477h20.181c.815 0 1.477-.662 1.477-1.477V1.476A1.478 1.478 0 0 0 21.658 0zM10.505 13.04c0 .643-.061 1.191-.183 1.643s-.307.815-.553 1.099c-.247.28-.556.487-.924.616-.369.131-.798.195-1.287.195-.43 0-.818-.068-1.167-.203a2.442 2.442 0 0 1-1.453-1.496 3.435 3.435 0 0 1-.199-1.199v-.288h1.386c0 1.29.478 1.936 1.434 1.936.245 0 .462-.028.654-.087.191-.06.353-.169.486-.332.133-.162.233-.386.302-.676s.104-.668.104-1.135V5.895h1.402v7.145h-.002zm7.735 2.095a2.325 2.325 0 0 1-.608.765 2.914 2.914 0 0 1-.961.511c-.376.121-.8.182-1.267.182-2.07 0-3.163-.817-3.274-2.453h1.362c.006.924.639 1.387 1.897 1.387.279 0 .529-.03.744-.093.215-.061.395-.146.537-.254a1.056 1.056 0 0 0 .439-.863.98.98 0 0 0-.084-.438c-.056-.111-.166-.21-.328-.296a3.576 3.576 0 0 0-.672-.25 42.292 42.292 0 0 0-1.124-.308c-.45-.112-.84-.224-1.166-.336a2.788 2.788 0 0 1-.805-.404 1.465 1.465 0 0 1-.467-.589c-.101-.234-.151-.529-.151-.885 0-.313.066-.604.199-.872s.322-.5.57-.697c.246-.197.545-.35.895-.462a3.86 3.86 0 0 1 1.172-.167c2.002 0 3.02.711 3.051 2.135H16.86c-.048-.711-.584-1.068-1.609-1.068-.228 0-.438.023-.633.068s-.362.11-.506.195-.254.19-.335.315a.796.796 0 0 0-.119.434c0 .149.019.271.056.366.037.096.126.186.267.268s.35.163.625.243c.276.08.653.178 1.132.295.462.111.863.227 1.204.346.339.12.621.265.848.435.226.169.392.376.502.621.108.244.163.55.163.916 0 .343-.073.661-.215.953z" style="" fill="#f7df1e" data-original="#030104" class=""></path></g></svg>