<svg xmlns="http://www.w3.org/2000/svg" version="1.1" xmlns:xlink="http://www.w3.org/1999/xlink" xmlns:svgjs="http://svgjs.com/svgjs" width="512" height="512" x="0" y="0" viewBox="0 0 512 512" style="enable-background:new 0 0 512 512" xml:space="preserve" class=""><g><path fill="#ffda44" d="M504.754 250.316v58.051c0 30.707-24.89 55.594-55.598 55.594H275.711c-9.524 0-17.176 7.953-16.73 17.57.445 9.11 8.324 15.914 17.206 15.914h41.02c9.258 0 16.75 7.504 16.75 16.75v41.856c0 30.906-25.055 55.949-55.945 55.949h-48.66c-30.903 0-55.957-25.043-55.957-55.95V308.595H55.598C24.89 308.594 0 283.704 0 252.996v-49.371c0-30.707 24.89-55.598 55.598-55.598h117.797v-.007h50.77c9.503 0 17.163-7.922 16.73-17.54-.426-9.007-8.18-15.953-17.207-15.953h-33.543c-9.247 0-16.75-7.496-16.75-16.742V55.95C173.395 25.043 198.449 0 229.352 0h48.66c30.84 0 55.855 24.95 55.945 55.793v138.926h115.2c30.706 0 55.597 24.902 55.597 55.597zm0 0" data-original="#ffda44"></path><path fill="#ffcd00" d="M504.754 250.316v58.051c0 30.707-24.89 55.594-55.598 55.594H275.711c-9.524 0-17.176 7.953-16.73 17.57.445 9.11 8.324 15.914 17.206 15.914h41.02c9.258 0 16.75 7.504 16.75 16.75v41.856c0 30.906-25.055 55.949-55.945 55.949H253.68V0h24.332c30.84 0 55.855 24.95 55.945 55.793v138.926h115.2c30.706 0 55.597 24.902 55.597 55.597zm0 0" data-original="#ffcd00"></path><path fill="#4895ff" d="M318.262 437.164c0 9.246-7.492 16.742-16.739 16.742-9.246 0-16.742-7.496-16.742-16.742s7.496-16.738 16.742-16.738c9.247 0 16.739 7.492 16.739 16.738zm0 0" data-original="#4895ff" class=""></path><path fill="#2682ff" d="M318.262 437.164c0 9.246-7.492 16.742-16.739 16.742v-33.48c9.247 0 16.739 7.492 16.739 16.738zm0 0" data-original="#2682ff"></path><path fill="#4895ff" d="M333.957 55.793v161.879c0 18.504-14.988 33.492-33.492 33.492h-110.32c-9.247 0-16.75 7.508-16.75 16.742v40.688H55.598C24.89 308.594 0 283.695 0 252.996v-49.371c0-30.7 24.89-55.598 55.598-55.598h117.797v-.007h50.77c9.503 0 17.163-7.922 16.73-17.54-.426-9.007-8.18-15.953-17.208-15.953h-33.542c-9.247 0-16.75-7.496-16.75-16.742V55.95C173.395 25.043 198.449 0 229.352 0h48.66c30.84 0 55.855 24.95 55.945 55.793zm0 0" data-original="#4895ff" class=""></path><path fill="#2682ff" d="M333.957 55.793v161.879c0 18.504-14.988 33.492-33.492 33.492H253.68V0h24.332c30.84 0 55.855 24.95 55.945 55.793zm0 0" data-original="#2682ff"></path><path fill="#ffda44" d="M226.434 78.695c0 9.243-7.496 16.739-16.743 16.739-9.257 0-16.75-7.496-16.75-16.739 0-9.246 7.493-16.754 16.75-16.754 9.246 0 16.743 7.508 16.743 16.754zm0 0" data-original="#ffda44"></path><path fill="#ffcd00" d="M226.434 78.695c0 9.243-7.496 16.739-16.743 16.739V61.94c9.246 0 16.743 7.508 16.743 16.754zm0 0" data-original="#ffcd00"></path></g></svg>