<svg xmlns="http://www.w3.org/2000/svg" version="1.1" xmlns:xlink="http://www.w3.org/1999/xlink" xmlns:svgjs="http://svgjs.com/svgjs" width="512" height="512" x="0" y="0" viewBox="0 0 512.001 512" style="enable-background:new 0 0 512 512" xml:space="preserve" class=""><g><path fill="#5b5c6c" d="M510.25 230.082 388.773 440.59a13.02 13.02 0 0 1-11.296 6.52H134.516a13.022 13.022 0 0 1-11.29-6.52l-9.663-16.754a303.366 303.366 0 0 0 53.285-11.469h195.16c1.82 0 3.504-.972 4.414-2.555l106.015-183.707a5.1 5.1 0 0 0 0-5.097L373.7 49.922A302.976 302.976 0 0 0 357.34 0h20.138c4.664 0 8.964 2.492 11.296 6.531L510.25 217.04a13.033 13.033 0 0 1 0 13.043zm0 0" data-original="#5b5c6c" class=""></path><path fill="#707384" d="M381.766 120.04c0 137.335-90.399 253.554-214.918 292.327a303.443 303.443 0 0 1-53.286 11.469L1.75 230.082a13.025 13.025 0 0 1 0-13.039L123.227 6.531A13.041 13.041 0 0 1 134.516 0H357.34a303.097 303.097 0 0 1 16.36 49.922c5.273 22.52 8.066 45.992 8.066 70.117zm0 0" data-original="#707384" class=""></path><path fill="#464655" d="M472.438 226.105 366.421 409.813a5.093 5.093 0 0 1-4.414 2.554h-195.16c124.52-38.773 214.918-154.992 214.918-292.328 0-24.125-2.793-47.598-8.067-70.117l98.738 171.086a5.1 5.1 0 0 1 0 5.097zm0 0" data-original="#464655"></path><path fill="#5b5c6c" d="M381.766 120.04c0 137.335-90.399 253.554-214.918 292.327h-16.864a5.093 5.093 0 0 1-4.414-2.555L39.566 226.106a5.1 5.1 0 0 1 0-5.097l106.004-183.7a5.1 5.1 0 0 1 4.414-2.554h212.024c1.82 0 3.504.973 4.414 2.555l7.277 12.613c5.274 22.52 8.067 45.992 8.067 70.117zm0 0" data-original="#5b5c6c" class=""></path><path fill="#c3b4fa" d="M400.023 503.668h-288.05c-10.239 0-18.54-8.3-18.54-18.54V373.75c0-10.238 8.301-18.54 18.54-18.54h288.05c10.243 0 18.543 8.302 18.543 18.54v111.375c0 10.242-8.3 18.543-18.543 18.543zm0 0" data-original="#c3b4fa" class=""></path><path fill="#a09bff" d="M400.027 355.21h-29.652c10.238 0 18.535 8.302 18.535 18.544V485.12c0 10.242-8.297 18.547-18.535 18.547h29.652c10.239 0 18.54-8.305 18.54-18.547V373.758c0-10.246-8.301-18.547-18.54-18.547zm0 0" data-original="#a09bff"></path><g fill="#8080e5"><path d="M128.586 468.508v-76.223c0-1.25.469-2.347 1.406-3.285.942-.937 2.113-1.406 3.52-1.406h23.207c18.52 0 27.781 8.168 27.781 24.508 0 6.414-1.387 11.574-4.16 15.48-2.774 3.91-6.508 6.566-11.195 7.977l15.355 28.496c.39.468.586 1.093.586 1.875 0 1.957-1.016 3.773-3.047 5.453-2.035 1.68-4.184 2.52-6.45 2.52s-4.023-1.212-5.273-3.633l-16.644-32.368h-9.848v30.606c0 1.488-.742 2.66-2.226 3.52-1.485.863-3.282 1.288-5.391 1.288-2.035 0-3.809-.425-5.336-1.289-1.52-.859-2.285-2.03-2.285-3.52zm15.238-42.567h12.895c8.363 0 12.543-4.144 12.543-12.433 0-8.363-4.18-12.547-12.543-12.547h-12.895zM190.71 450.332v-9.969c0-6.406 2.5-11.922 7.505-16.535 5-4.61 11.055-6.918 18.168-6.918 6.64 0 12.324 2.102 17.054 6.305 4.727 4.2 7.09 9.48 7.09 15.844 0 2.324-.293 4.238-.879 5.746-.585 1.511-1.484 2.574-2.695 3.195s-2.328 1.008-3.34 1.164c-1.015.152-2.343.23-3.984.23h-23.797v1.762c0 3.36 1.25 6.078 3.75 8.149 2.5 2.07 5.824 3.105 9.965 3.105 2.969 0 5.898-.742 8.789-2.226 2.89-1.485 4.766-2.227 5.629-2.227 1.64 0 3.008.762 4.101 2.285 1.094 1.524 1.641 2.988 1.641 4.399 0 2.187-1.973 4.359-5.918 6.507-3.95 2.153-8.851 3.223-14.71 3.223-8.364 0-15.18-2.207-20.454-6.625-5.277-4.414-7.914-10.219-7.914-17.414zm15.122-9.852h17.113c1.25 0 2.13-.199 2.64-.601.505-.402.763-1.188.763-2.356 0-2.554-.996-4.636-2.989-6.242s-4.437-2.41-7.328-2.41c-2.734 0-5.117.79-7.148 2.356-2.035 1.57-3.051 3.632-3.051 6.187zM246.273 458.293c0-6.156 2.344-10.484 7.032-12.996 4.687-2.504 11.445-3.758 20.277-3.758h4.809v-1.57c0-2.973-.844-5.567-2.524-7.778-1.68-2.214-4.277-3.32-7.793-3.32s-6.527.668-9.027 1.996c-2.5 1.328-3.945 1.992-4.336 1.992-1.563 0-2.813-.78-3.75-2.347-.938-1.563-1.406-3.282-1.406-5.157 0-2.27 2.007-4.242 6.035-5.925 4.023-1.68 8.262-2.52 12.719-2.52 8.515 0 14.843 2.172 18.988 6.508 4.14 4.34 6.21 9.793 6.21 16.36v28.73c0 1.332-.702 2.465-2.109 3.402s-3.164 1.406-5.277 1.406c-1.953 0-3.574-.5-4.863-1.503-1.29-1.004-1.934-2.215-1.934-3.633v-3.637c-5.39 6.555-11.332 9.832-17.816 9.832-4.453 0-8.11-1.371-10.961-4.11-2.852-2.742-4.274-6.73-4.274-11.972zm15.118-1.89c0 2.007.566 3.507 1.699 4.507 1.133 1.004 2.64 1.5 4.515 1.5 2.5 0 4.922-1.11 7.266-3.336 2.344-2.222 3.52-4.672 3.52-7.344v-2.335h-1.762c-4.766 0-8.496.464-11.192 1.39-2.699.93-4.046 2.8-4.046 5.617zM302.887 450.332v-9.379c0-7.195 2.11-13 6.328-17.418 4.219-4.414 10.55-6.625 18.988-6.625 5.313 0 9.77.938 13.363 2.817 3.594 1.875 5.391 3.984 5.391 6.332 0 1.64-.586 3.28-1.758 4.921-1.172 1.645-2.578 2.465-4.219 2.465-.468 0-1.855-.527-4.16-1.582-2.304-1.058-4.789-1.582-7.445-1.582-7.578 0-11.367 3.567-11.367 10.703v9.313c0 7.14 3.828 10.707 11.484 10.707 2.656 0 5.117-.566 7.387-1.7 2.266-1.132 3.71-1.702 4.336-1.702 1.875 0 3.418.785 4.633 2.347 1.21 1.563 1.816 3.164 1.816 4.809 0 2.422-1.898 4.633-5.687 6.625-3.79 1.992-8.34 2.988-13.657 2.988-8.515 0-14.883-2.187-19.105-6.566-4.219-4.375-6.328-10.2-6.328-17.473zM355.516 454.543v-56.215c0-1.312.777-2.414 2.343-3.305 1.559-.886 3.282-1.332 5.157-1.332 2.03 0 3.808.434 5.332 1.297 1.523.867 2.285 1.938 2.285 3.215v19.41h13.832c1.172 0 2.11.598 2.812 1.785s1.055 2.586 1.055 4.196c0 1.613-.352 3.011-1.055 4.199s-1.64 1.781-2.812 1.781h-13.832v24.457c0 2.157.488 3.684 1.469 4.578.972.895 2.675 1.34 5.097 1.34h4.57c2.032 0 3.614.653 4.75 1.961 1.13 1.309 1.696 2.863 1.696 4.664 0 1.88-.567 3.473-1.695 4.781-1.137 1.31-2.72 1.961-4.75 1.961h-4.57c-14.458 0-21.684-6.257-21.684-18.773zm0 0" fill="#8080e5" data-original="#8080e5"></path></g><path fill="#a0dcf0" d="M272.902 199.918c0-9.336-7.57-16.91-16.902-16.91-9.336 0-16.902 7.574-16.902 16.91 0 9.34 7.566 16.91 16.902 16.91 9.332 0 16.902-7.57 16.902-16.91zm0 0" data-original="#a0dcf0"></path><path fill="#54a1ff" d="M304.645 316.305c-12.235 0-26.54-5.899-41.754-17.438-20.696-15.687-41.325-40.324-58.086-69.375-16.766-29.05-27.778-59.246-31.012-85.02-3.523-28.09 2.668-48.261 17.437-56.792 14.766-8.532 35.32-3.809 57.875 13.289 20.696 15.691 41.325 40.328 58.086 69.379 16.766 29.05 27.778 59.242 31.012 85.015 3.527 28.094-2.668 48.266-17.433 56.793-4.805 2.778-10.227 4.149-16.125 4.149zm-97.149-217.09c-3.195 0-6.027.68-8.422 2.062-8.824 5.094-12.363 20.125-9.715 41.243 2.98 23.742 13.29 51.843 29.032 79.12 15.742 27.282 34.914 50.262 53.976 64.715 16.953 12.852 31.735 17.301 40.555 12.207 8.824-5.097 12.363-20.128 9.715-41.242-2.98-23.746-13.29-51.843-29.032-79.125-15.742-27.277-34.91-50.261-53.976-64.715-12.352-9.363-23.55-14.265-32.133-14.265zm0 0" data-original="#54a1ff" class=""></path><path fill="#54a1ff" d="M207.352 316.305c-5.899 0-11.317-1.371-16.122-4.149-14.77-8.527-20.96-28.699-17.437-56.793 3.234-25.773 14.246-55.965 31.012-85.015 16.761-29.051 37.39-53.688 58.086-69.38C285.445 83.872 306 79.149 320.77 87.68c14.765 8.53 20.96 28.703 17.433 56.793-3.234 25.773-14.246 55.968-31.012 85.02-16.761 29.046-37.39 53.687-58.086 69.374-15.214 11.535-29.52 17.438-41.753 17.438zM304.5 99.215c-8.582 0-19.777 4.902-32.133 14.265-19.062 14.454-38.234 37.438-53.972 64.715-15.743 27.282-26.055 55.38-29.032 79.125-2.652 21.114.89 36.145 9.711 41.243 8.824 5.097 23.606.644 40.559-12.208 19.062-14.453 38.23-37.433 53.972-64.714 15.743-27.278 26.051-55.375 29.032-79.121 2.648-21.118-.89-36.149-9.715-41.243-2.39-1.382-5.227-2.062-8.422-2.062zm0 0" data-original="#54a1ff" class=""></path><path fill="#54a1ff" d="M256 259.063c-33.527 0-65.172-5.555-89.098-15.641-26.082-10.992-40.445-26.442-40.445-43.504s14.363-32.508 40.445-43.504c23.926-10.082 55.57-15.637 89.098-15.637s65.168 5.555 89.098 15.637c26.078 10.996 40.441 26.441 40.441 43.504s-14.363 32.512-40.441 43.504c-23.93 10.086-55.57 15.64-89.098 15.64zm0-102.586c-67.094 0-113.852 22.894-113.852 43.441 0 20.55 46.758 43.445 113.852 43.445 67.09 0 113.848-22.894 113.848-43.445 0-20.547-46.758-43.441-113.848-43.441zm0 0" data-original="#54a1ff" class=""></path></g></svg>