<svg xmlns="http://www.w3.org/2000/svg" version="1.1" xmlns:xlink="http://www.w3.org/1999/xlink" xmlns:svgjs="http://svgjs.com/svgjs" width="512" height="512" x="0" y="0" viewBox="0 0 512 512" style="enable-background:new 0 0 512 512" xml:space="preserve" class=""><g><path fill="#d5e8fe" d="M241 391h30v90h-30z" data-original="#d5e8fe"></path><path fill="#b5dbff" d="M256 391h15v90h-15z" data-original="#b5dbff"></path><path fill="#5f55af" d="M0 16v390h512V16z" data-original="#5f55af" class=""></path><path fill="#453d83" d="M256 16h256v390H256z" data-original="#453d83" class=""></path><path fill="#edf5ff" d="M121 466h270v30H121z" data-original="#edf5ff"></path><path fill="#d5e8fe" d="M256 466h135v30H256z" data-original="#d5e8fe"></path><g fill="#64e1dc"><path d="M301.601 286 256 325l-20.099 17.4-19.802-22.8 39.3-33.6-39.3-33.6 19.802-22.8L256 247zM126.244 342.382 60.458 286l65.786-56.382 19.512 22.764L106.542 286l39.214 33.618zM151.377 342.312 181.31 222.33l29.085 7.256-29.934 119.983z" fill="#64e1dc" data-original="#64e1dc" class=""></path></g><path fill="#ffda2d" d="M181 106h30v30h-30zM241 106h30v30h-30z" data-original="#ffda2d" class=""></path><path fill="#9cdd05" d="M361 166h30v30h-30zM421 166h30v30h-30z" data-original="#9cdd05" class=""></path><path fill="#00c8c8" d="M361 286h30v30h-30zM421 286h30v30h-30zM301 106h150v30H301z" data-original="#00c8c8" class=""></path><path fill="#fdbf00" d="M331 226h30v30h-30zM391 226h60v30h-60z" data-original="#fdbf00" class=""></path><path fill="#ffda2d" d="M61 106h90v30H61z" data-original="#ffda2d" class=""></path><path fill="#ff80ac" d="M181 166h150v30H181z" data-original="#ff80ac"></path><path fill="#c3ea21" d="M91 166h60v30H91z" data-original="#c3ea21"></path><path fill="#fdbf00" d="M256 106h15v30h-15z" data-original="#fdbf00" class=""></path><path fill="#00c8c8" d="m256 247 45.601 39L256 325z" data-original="#00c8c8" class=""></path><path fill="#ff3980" d="M256 166h75v30h-75z" data-original="#ff3980"></path></g></svg>